<?xml version="1.0" standalone="no"?>
<!DOCTYPE svg PUBLIC "-//W3C//DTD SVG 20010904//EN"
 "http://www.w3.org/TR/2001/REC-SVG-20010904/DTD/svg10.dtd">
<svg version="1.0" xmlns="http://www.w3.org/2000/svg"
 width="512.000000pt" height="512.000000pt" viewBox="0 0 512.000000 512.000000"
 preserveAspectRatio="xMidYMid meet">

<g transform="translate(0.000000,512.000000) scale(0.100000,-0.100000)"
fill="#000000" stroke="none">
<path d="M1030 4574 c-105 -28 -193 -101 -244 -202 -31 -62 -31 -62 -75 -472
l-36 -335 -185 -6 c-204 -6 -238 -14 -325 -74 -61 -42 -98 -87 -133 -163 l-27
-57 0 -1221 0 -1220 38 -76 c44 -89 92 -136 187 -182 l65 -31 1860 -3 c1356
-2 1876 0 1920 8 153 29 276 153 305 309 5 29 10 138 10 241 l0 187 123 -1
c106 -1 129 2 179 22 106 43 201 152 227 262 18 74 203 2328 196 2390 -12 117
-98 241 -203 294 -27 14 -78 30 -113 36 -63 11 -3637 311 -3688 309 -14 0 -51
-7 -81 -15z m1900 -334 c998 -83 1833 -155 1855 -161 52 -15 121 -83 130 -129
3 -20 -37 -555 -90 -1189 -102 -1222 -99 -1195 -152 -1243 -43 -39 -92 -50
-190 -43 l-92 7 -3 886 -3 887 -24 60 c-33 83 -133 183 -216 216 l-60 24
-1602 3 -1603 2 0 23 c0 43 69 663 76 682 20 56 101 123 149 125 6 0 827 -67
1825 -150z m1125 -891 c51 -14 110 -73 124 -124 6 -22 11 -88 11 -147 l0 -108
-1995 0 -1995 0 0 113 c0 135 9 173 54 216 66 64 -64 60 1936 61 1302 0 1836
-3 1865 -11z m133 -791 l2 -208 -1995 0 -1995 0 0 210 0 210 1993 -2 1992 -3
3 -207z m2 -1030 c0 -404 -4 -636 -11 -661 -5 -21 -24 -53 -40 -72 -62 -71 90
-66 -1965 -63 l-1850 3 -36 24 c-19 13 -46 40 -59 59 l-24 36 -3 648 -2 648
1995 0 1995 0 0 -622z"/>
<path d="M2795 1852 c-16 -2 -42 -15 -57 -30 l-28 -26 0 -354 0 -354 29 -29
29 -29 517 0 c335 0 523 4 536 10 46 25 49 48 49 400 0 356 -2 374 -53 401
-16 9 -149 13 -507 13 -267 1 -498 0 -515 -2z m873 -410 l2 -212 -380 0 -380
0 0 209 c0 131 4 211 10 213 5 2 175 3 377 2 l368 -1 3 -211z"/>
</g>
</svg>
